# xmcd
# Track frame offsets:
# 183
# 14053
# 24945
# 37863
# 48758
# 60355
# 71763
# 84240
# 94305
# 105370
# 116650
# 127170
# 138788
# 151458
# 164830
# 176268
#
# Disc length: 2500 seconds
# Revision: 0
# Processed by: cddbd v1.4PL0 Copyright (c) Steve Scherf et al.
# Submitted via: VisiTrax 2.9.5.180 - For more info visit www.synapsa.com
#
DISCID=c909c210
DTITLE=Willie Nelson - Country Classics
DYEAR=1991
DGENRE=
TTITLE0=Funny How Time Slips Away
TTITLE1=Hello Walls
TTITLE2=Crazy
TTITLE3=I´ll Walk Alone
TTITLE4=Take Me As I Am ( Or Let Me Go )
TTITLE5=Night Life
TTITLE6=Mr. Record Man
TTITLE7=Touch Me
TTITLE8=Half A Man
TTITLE9=You Took My Happy Away
TTITLE10=The Part Where I Cry
TTITLE11=Undo The Right
TTITLE12=Wake Me When it´s Over
TTITLE13=Three Days
TTITLE14=Darkness On The Face Of The Earth
TTITLE15=I Hope So
EXTD=
EXTT0=
EXTT1=
EXTT2=
EXTT3=
EXTT4=
EXTT5=
EXTT6=
EXTT7=
EXTT8=
EXTT9=
EXTT10=
EXTT11=
EXTT12=
EXTT13=
EXTT14=
EXTT15=
PLAYORDER=
